<?xml version="1.0" standalone="no"?>
<!DOCTYPE svg PUBLIC "-//W3C//DTD SVG 20010904//EN"
 "http://www.w3.org/TR/2001/REC-SVG-20010904/DTD/svg10.dtd">
<svg version="1.0" xmlns="http://www.w3.org/2000/svg"
 width="619.000000pt" height="907.000000pt" viewBox="0 0 619.000000 907.000000"
 preserveAspectRatio="xMidYMid meet">
<metadata>
Created by potrace 1.16, written by Peter Selinger 2001-2019
</metadata>
<g transform="translate(0.000000,907.000000) scale(0.100000,-0.100000)"
fill="#000000" stroke="none">
<path d="M2455 8981 c-93 -35 -101 -39 -114 -55 -7 -9 -20 -16 -27 -16 -7 0
-58 -17 -111 -39 -54 -21 -127 -48 -163 -61 -75 -26 -137 -59 -270 -145 -52
-34 -115 -72 -140 -84 -53 -28 -206 -137 -217 -155 -5 -7 -28 -36 -52 -64 -25
-29 -80 -107 -122 -174 -176 -279 -208 -380 -216 -698 -4 -166 -2 -215 16
-330 23 -150 36 -203 75 -305 72 -187 191 -362 403 -593 99 -107 219 -192 307
-217 137 -40 417 3 497 75 9 8 35 28 58 43 40 28 75 89 129 222 8 22 26 53 39
68 40 49 29 100 -24 122 -53 22 -63 19 -110 -32 -40 -43 -43 -50 -43 -104 0
-56 -1 -59 -44 -93 -36 -31 -51 -36 -93 -36 -27 0 -53 -4 -58 -9 -14 -12 -107
-31 -155 -31 -28 0 -40 4 -40 14 0 8 -14 26 -32 41 -26 22 -39 26 -72 22 -54
-5 -104 20 -151 77 -27 34 -45 46 -74 51 -23 4 -48 17 -63 33 -71 80 -210 317
-252 433 -15 41 -39 105 -53 143 -25 65 -26 75 -19 195 8 152 24 240 72 386
68 204 113 286 241 438 132 157 333 247 554 247 87 0 243 -22 328 -46 90 -26
294 -138 316 -174 7 -11 -58 -7 -166 12 -36 6 -122 8 -195 6 -232 -9 -357 -67
-502 -232 -200 -229 -303 -392 -310 -494 -6 -88 37 -247 105 -388 17 -36 68
-56 110 -45 24 6 29 17 53 109 16 59 42 127 63 161 70 117 288 345 374 390 40
21 155 13 235 -15 108 -39 268 -117 306 -149 44 -37 119 -152 239 -367 6 -11
16 -24 23 -28 9 -5 8 -40 -4 -146 -17 -150 -42 -446 -51 -614 -3 -58 -15 -159
-25 -225 -11 -66 -29 -214 -40 -330 -11 -115 -30 -253 -41 -305 -11 -52 -36
-183 -55 -290 -32 -182 -65 -316 -129 -520 -14 -47 -44 -147 -66 -223 -21 -76
-55 -179 -75 -230 -50 -131 -142 -293 -173 -307 -17 -8 -62 -9 -141 -5 -145 8
-217 -3 -389 -61 -121 -41 -354 -148 -420 -194 -14 -9 -48 -32 -76 -49 -122
-78 -342 -286 -448 -425 -62 -82 -142 -225 -173 -311 -9 -27 -21 -54 -24 -60
-25 -34 -102 -235 -105 -269 -1 -23 -9 -57 -18 -76 -38 -86 -50 -157 -42 -232
5 -40 9 -153 9 -251 1 -140 4 -180 15 -186 17 -11 -6 -62 -71 -162 -55 -85
-197 -430 -251 -609 -59 -195 -91 -474 -68 -595 15 -81 63 -175 115 -227 58
-58 155 -106 241 -119 134 -21 253 15 422 129 119 81 224 189 376 386 l22 29
90 -45 c50 -25 127 -55 172 -67 45 -12 107 -33 137 -47 60 -27 298 -69 486
-84 58 -5 179 -16 270 -25 217 -22 483 -16 585 12 113 32 188 77 262 157 109
118 146 218 173 468 27 253 -5 605 -76 853 -54 184 -122 338 -184 417 -21 26
-41 64 -44 83 -4 21 -15 39 -29 46 -11 7 -28 21 -37 31 -12 16 -20 17 -42 9
-22 -8 -29 -6 -45 11 -10 12 -43 37 -73 56 -30 19 -73 50 -96 69 -23 18 -44
33 -48 33 -4 0 -51 21 -104 46 -256 122 -346 144 -435 105 -27 -12 -70 -21
-95 -21 -94 1 -330 -22 -436 -41 -175 -32 -359 -98 -536 -193 -228 -122 -370
-219 -370 -252 0 -16 -22 -54 -57 -97 -30 -37 -29 -28 3 36 110 217 346 427
699 622 28 15 88 49 135 75 210 116 364 167 643 211 133 21 357 -3 546 -57 84
-25 316 -121 426 -177 33 -16 72 -36 87 -44 14 -7 34 -13 43 -13 27 0 72 31
85 59 7 14 50 86 96 158 124 193 239 406 340 627 49 108 92 196 96 196 8 0 65
-181 118 -375 95 -349 191 -657 273 -870 27 -71 65 -169 83 -218 19 -48 34
-97 34 -110 1 -26 15 -46 52 -70 37 -23 50 -22 78 8 13 14 29 25 35 25 7 0 43
32 81 72 38 40 123 128 190 197 66 70 140 147 163 173 48 53 277 262 361 330
93 75 193 148 201 148 4 0 27 18 51 41 23 22 58 52 76 67 18 14 47 46 64 71
17 25 42 58 56 73 14 15 26 36 27 47 1 10 15 46 33 78 17 33 36 87 41 124 16
97 16 276 1 294 -16 19 -54 19 -69 1 -15 -17 -33 -118 -46 -246 -10 -100 -37
-151 -123 -230 -41 -39 -87 -79 -101 -90 l-28 -19 -35 47 c-174 229 -214 284
-245 337 -19 33 -59 101 -88 150 -29 50 -79 137 -111 195 -31 58 -70 128 -87
155 -30 51 -173 340 -444 900 -140 289 -165 344 -198 435 -7 19 -27 71 -45
115 -61 149 -282 833 -305 945 -9 41 -18 85 -21 98 -2 12 -11 22 -18 22 -14 0
-17 12 -76 280 -10 47 -21 108 -25 135 -22 165 -84 443 -132 585 -15 47 -30
126 -39 214 l-14 138 42 95 c35 80 53 106 113 166 40 40 77 82 84 94 6 13 31
32 55 42 34 16 45 27 54 59 19 61 15 81 -14 93 -36 13 -132 -5 -159 -31 -12
-11 -48 -33 -81 -49 -34 -16 -78 -46 -100 -67 -21 -21 -61 -55 -88 -75 l-49
-38 -35 47 c-19 26 -51 64 -71 86 -62 66 -334 239 -473 300 -31 14 -67 36 -82
50 -16 16 -36 26 -55 26 -17 0 -47 11 -67 25 -67 46 -156 67 -299 71 -111 4
-137 2 -180 -15z m901 -1464 c3 -12 12 -29 18 -37 7 -8 18 -73 25 -143 6 -71
20 -174 31 -230 22 -123 65 -416 80 -547 11 -92 69 -515 90 -654 6 -38 8 -71
6 -73 -3 -3 -76 -16 -163 -28 -87 -13 -187 -28 -222 -35 -34 -6 -65 -9 -68 -6
-3 3 0 63 6 133 19 220 30 372 41 563 21 384 44 608 67 653 9 19 12 42 8 70
-4 27 3 99 19 197 14 85 26 158 26 162 0 16 30 -5 36 -25z m443 -2629 c82
-349 133 -543 196 -745 l38 -122 -117 -233 c-64 -129 -116 -239 -116 -246 0
-18 -4 -16 -88 32 -86 50 -168 82 -412 162 -198 65 -266 80 -430 94 -125 10
-251 28 -258 35 -3 2 10 27 27 54 36 60 129 253 159 331 20 54 27 76 56 175
43 148 61 211 96 325 21 69 43 149 50 178 10 43 15 52 29 47 72 -30 96 -28
149 12 30 23 40 25 93 19 42 -5 66 -3 86 8 34 17 258 51 364 55 l35 1 43 -182z
m-989 -2778 c149 -73 187 -99 326 -221 136 -120 180 -185 234 -344 55 -166 69
-285 57 -485 -8 -122 -65 -306 -117 -380 -38 -53 -175 -132 -320 -184 -124
-45 -280 -50 -505 -17 -38 6 -101 11 -140 11 -38 0 -149 11 -245 26 -143 22
-208 38 -355 86 -164 55 -255 91 -255 103 0 2 25 51 56 109 41 79 55 114 52
138 -3 30 -6 33 -39 36 -36 3 -37 2 -104 -97 -37 -56 -71 -101 -75 -101 -10 0
-93 62 -133 99 -16 14 -76 85 -133 158 -107 135 -168 239 -204 348 l-21 62 44
74 c24 41 49 89 57 107 12 32 166 177 179 169 83 -47 106 -52 226 -51 109 0
137 5 300 47 270 69 343 96 636 235 59 27 147 61 196 76 48 14 104 32 123 40
19 8 36 15 37 16 2 0 57 -27 123 -60z m-1962 -925 c40 -76 142 -214 221 -297
31 -33 98 -91 149 -129 50 -38 92 -72 92 -75 0 -11 -93 -125 -155 -192 -51
-54 -78 -73 -182 -124 -135 -67 -190 -80 -217 -53 -14 14 -27 16 -67 11 -31
-4 -49 -3 -49 4 0 5 -18 10 -39 10 -98 0 -124 41 -124 191 1 110 -12 79 186
446 69 128 128 242 132 253 3 11 9 20 13 20 4 0 22 -29 40 -65z"/>
</g>
</svg>
