<svg id="Calque_1" data-name="Calque 1" xmlns="http://www.w3.org/2000/svg" xmlns:xlink="http://www.w3.org/1999/xlink" viewBox="0 0 463.2 463.08"><defs><style>.cls-1,.cls-3,.cls-4{fill:none;}.cls-2{clip-path:url(#clip-path);}.cls-3,.cls-4{stroke:#000;}.cls-3{stroke-miterlimit:10;stroke-width:0;}.cls-4{stroke-linecap:round;stroke-linejoin:round;stroke-width:0.72px;}</style><clipPath id="clip-path" transform="translate(-68.12 -151.3)"><polyline class="cls-1" points="14.12 760.18 580.88 760.18 580.88 14.86 14.12 14.86 14.12 760.18"/></clipPath></defs><title>ET</title><g class="cls-2"><path d="M325.4,151.66,531,177.34H325.4Zm205.56,0H325.4L531,177.34Z" transform="translate(-68.12 -151.3)"/><path class="cls-3" d="M325.4,151.66,531,177.34H325.4Zm205.56,0H325.4L531,177.34Z" transform="translate(-68.12 -151.3)"/><path d="M68.48,151.66,325.4,177.34H68.48Zm256.92,0H68.48L325.4,177.34Z" transform="translate(-68.12 -151.3)"/><path class="cls-3" d="M68.48,151.66,325.4,177.34H68.48Zm256.92,0H68.48L325.4,177.34Z" transform="translate(-68.12 -151.3)"/><path d="M68.48,177.34,325.4,203H68.48Zm256.92,0H68.48L325.4,203Z" transform="translate(-68.12 -151.3)"/><path class="cls-3" d="M68.48,177.34,325.4,203H68.48Zm256.92,0H68.48L325.4,203Z" transform="translate(-68.12 -151.3)"/><path d="M505.28,177.34,531,305.74H505.28Zm25.68,0H505.28L531,305.74Z" transform="translate(-68.12 -151.3)"/><path class="cls-3" d="M505.28,177.34,531,305.74H505.28Zm25.68,0H505.28L531,305.74Z" transform="translate(-68.12 -151.3)"/><path d="M68.48,203,120,305.74H68.48ZM120,203H68.48L120,305.74Z" transform="translate(-68.12 -151.3)"/><path class="cls-3" d="M68.48,203,120,305.74H68.48ZM120,203H68.48L120,305.74Z" transform="translate(-68.12 -151.3)"/><path d="M274,305.74,531,357.1H274Zm256.92,0H274L531,357.1Z" transform="translate(-68.12 -151.3)"/><path class="cls-3" d="M274,305.74,531,357.1H274Zm256.92,0H274L531,357.1Z" transform="translate(-68.12 -151.3)"/><path d="M120,305.74,222.68,357.1H120Zm102.72,0H120L222.68,357.1Z" transform="translate(-68.12 -151.3)"/><path class="cls-3" d="M120,305.74,222.68,357.1H120Zm102.72,0H120L222.68,357.1Z" transform="translate(-68.12 -151.3)"/><path d="M68.48,305.74,120,357.1H68.48Zm51.48,0H68.48L120,357.1Z" transform="translate(-68.12 -151.3)"/><path class="cls-3" d="M68.48,305.74,120,357.1H68.48Zm51.48,0H68.48L120,357.1Z" transform="translate(-68.12 -151.3)"/><path d="M68.48,357.1,120,459.94H68.48Zm51.48,0H68.48L120,459.94Z" transform="translate(-68.12 -151.3)"/><path class="cls-3" d="M68.48,357.1,120,459.94H68.48Zm51.48,0H68.48L120,459.94Z" transform="translate(-68.12 -151.3)"/><path d="M68.48,459.94,325.4,511.3H68.48Zm256.92,0H68.48L325.4,511.3Z" transform="translate(-68.12 -151.3)"/><path class="cls-3" d="M68.48,459.94,325.4,511.3H68.48Zm256.92,0H68.48L325.4,511.3Z" transform="translate(-68.12 -151.3)"/><path d="M505.28,357.1,531,588.34H505.28Zm25.68,0H505.28L531,588.34Z" transform="translate(-68.12 -151.3)"/><path class="cls-3" d="M505.28,357.1,531,588.34H505.28Zm25.68,0H505.28L531,588.34Z" transform="translate(-68.12 -151.3)"/><path d="M376.76,357.1l51.36,231.24H376.76Zm51.36,0H376.76l51.36,231.24Z" transform="translate(-68.12 -151.3)"/><path class="cls-3" d="M376.76,357.1l51.36,231.24H376.76Zm51.36,0H376.76l51.36,231.24Z" transform="translate(-68.12 -151.3)"/><path d="M68.48,511.3l25.8,77H68.48Zm25.8,0H68.48l25.8,77Z" transform="translate(-68.12 -151.3)"/><path class="cls-3" d="M68.48,511.3l25.8,77H68.48Zm25.8,0H68.48l25.8,77Z" transform="translate(-68.12 -151.3)"/><path d="M428.12,588.34,531,614H428.12Zm102.84,0H428.12L531,614Z" transform="translate(-68.12 -151.3)"/><path class="cls-3" d="M428.12,588.34,531,614H428.12Zm102.84,0H428.12L531,614Z" transform="translate(-68.12 -151.3)"/><path d="M376.76,588.34,428.12,614H376.76Zm51.36,0H376.76L428.12,614Z" transform="translate(-68.12 -151.3)"/><path class="cls-3" d="M376.76,588.34,428.12,614H376.76Zm51.36,0H376.76L428.12,614Z" transform="translate(-68.12 -151.3)"/><path d="M68.48,588.34,376.76,614H68.48Zm308.28,0H68.48L376.76,614Z" transform="translate(-68.12 -151.3)"/><path class="cls-3" d="M68.48,588.34,376.76,614H68.48Zm308.28,0H68.48L376.76,614Z" transform="translate(-68.12 -151.3)"/><polyline class="cls-4" points="462.84 462.72 462.84 0.36 0.36 0.36 462.84 0.36 462.84 462.72 0.36 462.72 0.36 0.36"/><polyline class="cls-4" points="51.84 51.72 51.84 154.44 154.56 154.44 154.56 205.8 51.84 205.8 51.84 308.64 257.28 308.64 257.28 360 26.16 360 26.16 437.04 308.64 437.04 308.64 205.8 205.92 205.8 205.92 154.44 437.16 154.44 437.16 26.04 257.28 26.04 257.28 51.72 51.84 51.72"/><polyline class="cls-4" points="360 205.8 437.16 205.8 437.16 437.04 360 437.04 360 205.8"/><line class="cls-4" x1="0.36" y1="462.72" x2="0.36" y2="462.72"/></g></svg>