<?xml version="1.0" standalone="no"?>
<!DOCTYPE svg PUBLIC "-//W3C//DTD SVG 20010904//EN"
 "http://www.w3.org/TR/2001/REC-SVG-20010904/DTD/svg10.dtd">
<svg version="1.0" xmlns="http://www.w3.org/2000/svg"
 width="995.000000pt" height="645.000000pt" viewBox="0 0 995.000000 645.000000"
 preserveAspectRatio="xMidYMid meet">
<metadata>
Created by potrace 1.16, written by Peter Selinger 2001-2019
</metadata>
<g transform="translate(0.000000,645.000000) scale(0.100000,-0.100000)"
fill="#000000" stroke="none">
<path d="M865 5678 c-3 -7 -4 -1106 -3 -2443 l3 -2430 717 -3 718 -2 5 22 c3
13 4 1112 3 2443 l-3 2420 -718 3 c-569 2 -719 0 -722 -10z"/>
<path d="M5257 5683 c-4 -3 -7 -190 -7 -415 l0 -408 2055 0 2055 0 -2 413 -3
412 -2046 3 c-1125 1 -2049 -1 -2052 -5z"/>
<path d="M2560 5310 l0 -370 890 0 890 0 -2 342 -3 342 -70 26 -70 25 -817 3
-818 3 0 -371z"/>
<path d="M6567 4603 c-4 -3 -7 -861 -7 -1905 l0 -1898 733 2 732 3 0 1900 0
1900 -726 3 c-399 1 -729 -1 -732 -5z"/>
<path d="M2560 3330 l0 -370 890 0 890 0 -2 342 -3 342 -70 26 -70 25 -817 3
-818 3 0 -371z"/>
<path d="M2560 1180 l0 -370 890 0 890 0 -2 342 -3 342 -70 26 -70 25 -817 3
-818 3 0 -371z"/>
</g>
</svg>
