<svg id="Calque_1" data-name="Calque 1" xmlns="http://www.w3.org/2000/svg" xmlns:xlink="http://www.w3.org/1999/xlink" viewBox="0 0 463.2 463.08"><defs><style>.cls-1,.cls-4,.cls-5{fill:none;}.cls-2{clip-path:url(#clip-path);}.cls-3{fill:#fff;}.cls-4,.cls-5{stroke:#fff;}.cls-4{stroke-miterlimit:10;stroke-width:0;}.cls-5{stroke-linecap:round;stroke-linejoin:round;stroke-width:0.72px;}</style><clipPath id="clip-path" transform="translate(-68 -185.12)"><polyline class="cls-1" points="14 794 580.76 794 580.76 48.68 14 48.68 14 794"/></clipPath></defs><title>LogoETblanc</title><g class="cls-2"><path class="cls-3" d="M325.28,185.48l205.56,25.68H325.28Zm205.56,0H325.28l205.56,25.68Z" transform="translate(-68 -185.12)"/><path class="cls-4" d="M325.28,185.48l205.56,25.68H325.28Zm205.56,0H325.28l205.56,25.68Z" transform="translate(-68 -185.12)"/><path class="cls-3" d="M68.36,185.48l256.92,25.68H68.36Zm256.92,0H68.36l256.92,25.68Z" transform="translate(-68 -185.12)"/><path class="cls-4" d="M68.36,185.48l256.92,25.68H68.36Zm256.92,0H68.36l256.92,25.68Z" transform="translate(-68 -185.12)"/><path class="cls-3" d="M68.36,211.16l256.92,25.68H68.36Zm256.92,0H68.36l256.92,25.68Z" transform="translate(-68 -185.12)"/><path class="cls-4" d="M68.36,211.16l256.92,25.68H68.36Zm256.92,0H68.36l256.92,25.68Z" transform="translate(-68 -185.12)"/><path class="cls-3" d="M505.16,211.16l25.68,128.4H505.16Zm25.68,0H505.16l25.68,128.4Z" transform="translate(-68 -185.12)"/><path class="cls-4" d="M505.16,211.16l25.68,128.4H505.16Zm25.68,0H505.16l25.68,128.4Z" transform="translate(-68 -185.12)"/><path class="cls-3" d="M68.36,236.84l51.48,102.72H68.36Zm51.48,0H68.36l51.48,102.72Z" transform="translate(-68 -185.12)"/><path class="cls-4" d="M68.36,236.84l51.48,102.72H68.36Zm51.48,0H68.36l51.48,102.72Z" transform="translate(-68 -185.12)"/><path class="cls-3" d="M273.92,339.56l256.92,51.36H273.92Zm256.92,0H273.92l256.92,51.36Z" transform="translate(-68 -185.12)"/><path class="cls-4" d="M273.92,339.56l256.92,51.36H273.92Zm256.92,0H273.92l256.92,51.36Z" transform="translate(-68 -185.12)"/><path class="cls-3" d="M119.84,339.56l102.72,51.36H119.84Zm102.72,0H119.84l102.72,51.36Z" transform="translate(-68 -185.12)"/><path class="cls-4" d="M119.84,339.56l102.72,51.36H119.84Zm102.72,0H119.84l102.72,51.36Z" transform="translate(-68 -185.12)"/><path class="cls-3" d="M68.36,339.56l51.48,51.36H68.36Zm51.48,0H68.36l51.48,51.36Z" transform="translate(-68 -185.12)"/><path class="cls-4" d="M68.36,339.56l51.48,51.36H68.36Zm51.48,0H68.36l51.48,51.36Z" transform="translate(-68 -185.12)"/><path class="cls-3" d="M68.36,390.92l51.48,102.84H68.36Zm51.48,0H68.36l51.48,102.84Z" transform="translate(-68 -185.12)"/><path class="cls-4" d="M68.36,390.92l51.48,102.84H68.36Zm51.48,0H68.36l51.48,102.84Z" transform="translate(-68 -185.12)"/><path class="cls-3" d="M68.36,493.76l256.92,51.36H68.36Zm256.92,0H68.36l256.92,51.36Z" transform="translate(-68 -185.12)"/><path class="cls-4" d="M68.36,493.76l256.92,51.36H68.36Zm256.92,0H68.36l256.92,51.36Z" transform="translate(-68 -185.12)"/><path class="cls-3" d="M505.16,390.92l25.68,231.24H505.16Zm25.68,0H505.16l25.68,231.24Z" transform="translate(-68 -185.12)"/><path class="cls-4" d="M505.16,390.92l25.68,231.24H505.16Zm25.68,0H505.16l25.68,231.24Z" transform="translate(-68 -185.12)"/><path class="cls-3" d="M376.64,390.92,428,622.16H376.64Zm51.36,0H376.64L428,622.16Z" transform="translate(-68 -185.12)"/><path class="cls-4" d="M376.64,390.92,428,622.16H376.64Zm51.36,0H376.64L428,622.16Z" transform="translate(-68 -185.12)"/><path class="cls-3" d="M68.36,545.12l25.8,77H68.36Zm25.8,0H68.36l25.8,77Z" transform="translate(-68 -185.12)"/><path class="cls-4" d="M68.36,545.12l25.8,77H68.36Zm25.8,0H68.36l25.8,77Z" transform="translate(-68 -185.12)"/><path class="cls-3" d="M428,622.16l102.84,25.68H428Zm102.84,0H428l102.84,25.68Z" transform="translate(-68 -185.12)"/><path class="cls-4" d="M428,622.16l102.84,25.68H428Zm102.84,0H428l102.84,25.68Z" transform="translate(-68 -185.12)"/><path class="cls-3" d="M376.64,622.16,428,647.84H376.64Zm51.36,0H376.64L428,647.84Z" transform="translate(-68 -185.12)"/><path class="cls-4" d="M376.64,622.16,428,647.84H376.64Zm51.36,0H376.64L428,647.84Z" transform="translate(-68 -185.12)"/><path class="cls-3" d="M68.36,622.16l308.28,25.68H68.36Zm308.28,0H68.36l308.28,25.68Z" transform="translate(-68 -185.12)"/><path class="cls-4" d="M68.36,622.16l308.28,25.68H68.36Zm308.28,0H68.36l308.28,25.68Z" transform="translate(-68 -185.12)"/><polyline class="cls-5" points="0.36 0.36 462.84 0.36 462.84 462.72 0.36 462.72 0.36 0.36"/><polyline class="cls-5" points="51.84 51.72 51.84 154.44 154.56 154.44 154.56 205.8 51.84 205.8 51.84 308.64 257.28 308.64 257.28 360 26.16 360 26.16 437.04 308.64 437.04 308.64 205.8 205.92 205.8 205.92 154.44 437.16 154.44 437.16 26.04 257.28 26.04 257.28 51.72 51.84 51.72"/><polyline class="cls-5" points="360 205.8 437.16 205.8 437.16 437.04 360 437.04 360 205.8"/><polyline class="cls-5" points="0.36 462.72 462.84 462.72 462.84 0.36 0.36 0.36 0.36 462.72"/></g></svg>